<svg id="Layer_1" data-name="Layer 1" xmlns="http://www.w3.org/2000/svg" viewBox="0 0 81 60"><defs><style>.cls-1{fill:none;}.cls-1,.cls-2{stroke:#000;stroke-linecap:round;stroke-miterlimit:10;stroke-width:3px;}.cls-2{fill:#fff;}</style></defs><title>Artboard 24</title><circle class="cls-1" cx="28.5" cy="29.33" r="15.5"/><line class="cls-1" x1="29" y1="6.83" x2="29" y2="1.83"/><line class="cls-1" x1="2" y1="27.83" x2="6" y2="27.83"/><line class="cls-1" x1="43.96" y1="12.52" x2="47.2" y2="9.28"/><line class="cls-1" x1="10.1" y1="9.49" x2="13.34" y2="12.72"/><path class="cls-2" d="M70.12,57.83a8.76,8.76,0,0,0,8.76-7.31,8.58,8.58,0,0,0-8.49-9.86,8.28,8.28,0,0,0-1.23.1,22.3,22.3,0,0,0-43.7-4.48,10.37,10.37,0,0,0-8.62,2.22,10.5,10.5,0,0,0-3.75,5.13,11.3,11.3,0,0,0,7.65,14.2Z"/></svg>