<svg id="Layer_1" data-name="Layer 1" xmlns="http://www.w3.org/2000/svg" viewBox="0 0 215 274"><defs><style>.cls-1,.cls-5,.cls-6{fill:none;}.cls-1,.cls-3,.cls-4,.cls-5{stroke:#000;}.cls-1,.cls-3,.cls-4,.cls-5,.cls-6{stroke-miterlimit:10;stroke-width:3px;}.cls-2,.cls-3{fill:#fff;}.cls-5,.cls-6{stroke-linecap:round;}.cls-6{stroke:#fff;}</style></defs><title>Artboard 1 copy</title><path d="M1.28,234.9c0-7.76,6-12.52,12.91-12.52a14.44,14.44,0,0,1,8.44,2.4v5.52a11.37,11.37,0,0,0-7.36-2.8c-4,0-7.11,2.6-7.11,7.4s3.08,7.4,7.11,7.4a11.37,11.37,0,0,0,7.36-2.8V245a14.44,14.44,0,0,1-8.44,2.4C7.28,247.42,1.28,242.66,1.28,234.9Z"/><path d="M36.64,222.9h5.47l10.08,24H45.75l-2-5.12H34.84l-2,5.12H26.56Zm5.51,14.68L39.28,230l-2.88,7.56Z"/><path d="M57.12,222.9h7.23l6.52,15.24,6.52-15.24h7.08v24H78.75V233.82c0-.56.12-2.4.16-2.56L78,233.82l-5.4,13.08H68.79l-5.4-13.08c-.23-.56-.8-2.28-.88-2.56,0,.16.16,2,.16,2.56V246.9H57.12Z"/><path d="M91.72,222.9H102c6,0,8.8,3.64,8.8,8s-2.76,8-8.8,8H98.19v7.92H91.72Zm8.67,11.8c2.76,0,3.92-1.44,3.92-3.76s-1.16-3.76-3.92-3.76h-2.2v7.52Z"/><path d="M121.51,222.9H127l10.08,24h-6.44l-2-5.12h-8.88l-2,5.12h-6.27ZM127,237.58,124.15,230l-2.88,7.56Z"/><path d="M142,222.9h6.48V242h10.2v4.88H142Z"/><path d="M162.2,234.9c0-7.36,6-12.68,13.31-12.68s13.24,5.32,13.24,12.68-5.92,12.68-13.24,12.68S162.2,242.26,162.2,234.9Zm19.67,0c0-4.6-2.36-7.6-6.36-7.6s-6.44,3-6.44,7.6,2.4,7.6,6.44,7.6S181.87,239.5,181.87,234.9Z"/><path d="M199.28,227.78h-7.72V222.9h21.91v4.88h-7.72V246.9h-6.47Z"/><path d="M25.71,269.48l-3.52-5.4h1.3l2.85,4.42,2.85-4.42h1.24l-3.52,5.4v3.6h-1.2Z"/><path d="M30.18,268.58A4.78,4.78,0,1,1,35,273.33,4.62,4.62,0,0,1,30.18,268.58Zm8.31,0A3.54,3.54,0,1,0,35,272.33,3.51,3.51,0,0,0,38.49,268.58Z"/><path d="M41.34,268.92v-4.84h1.23v4.86c0,2.32,1,3.34,2.7,3.34s2.7-1,2.7-3.34v-4.86h1.17v4.84c0,3.05-1.58,4.41-3.9,4.41S41.34,272,41.34,268.92Z"/><path d="M51.18,264.08h3c2.05,0,2.94,1.18,2.94,2.64a2.4,2.4,0,0,1-1.86,2.5L58,273.08h-1.4L54,269.36h-1.6v3.72h-1.2Zm3,4.27a1.64,1.64,0,1,0,0-3.27H52.38v3.27Z"/><path d="M64,265.08h-3.2v-1h7.59v1H65.16v8H64Z"/><path d="M69.57,264.08H75v1H70.77v2.75h3.49v1H70.77v3.24H75v1H69.57Z"/><path d="M76.77,264.08h.69l5.35,6.7v-6.7h1.1v9h-.69l-5.36-6.71v6.71H76.77Z"/><path d="M88.3,265.08H85.11v-1H92.7v1H89.5v8H88.3Z"/><path d="M96.51,264.08h1.2v9h-1.2Z"/><path d="M99.28,272.18l.27-1.11a3.69,3.69,0,0,0,2.73,1.23,1.67,1.67,0,0,0,1.89-1.58c0-.91-.45-1.42-2.13-1.87s-2.5-1.37-2.5-2.63,1-2.34,2.89-2.34a4,4,0,0,1,2.45.83l-.27.94a4,4,0,0,0-2.18-.79c-1.12,0-1.77.52-1.77,1.36,0,.65.41,1.19,1.82,1.56,1.93.51,2.82,1.35,2.82,2.84a2.74,2.74,0,0,1-3,2.65A4.22,4.22,0,0,1,99.28,272.18Z"/><path d="M112.06,269.48l-3.52-5.4h1.3l2.85,4.42,2.85-4.42h1.25l-3.53,5.4v3.6h-1.2Z"/><path d="M116.53,268.58a4.78,4.78,0,1,1,4.79,4.75A4.63,4.63,0,0,1,116.53,268.58Zm8.31,0a3.54,3.54,0,1,0-3.52,3.75A3.51,3.51,0,0,0,124.84,268.58Z"/><path d="M127.69,268.92v-4.84h1.23v4.86c0,2.32,1.05,3.34,2.7,3.34s2.7-1,2.7-3.34v-4.86h1.17v4.84c0,3.05-1.57,4.41-3.9,4.41S127.69,272,127.69,268.92Z"/><path d="M137.53,264.08h3c2.06,0,2.94,1.18,2.94,2.64a2.4,2.4,0,0,1-1.86,2.5l2.73,3.86h-1.39l-2.58-3.72h-1.61v3.72h-1.2Zm3,4.27a1.64,1.64,0,1,0,0-3.27h-1.77v3.27Z"/><path d="M147.52,268.58a4.58,4.58,0,0,1,4.79-4.7,5.49,5.49,0,0,1,3.12.95v1.24a4.51,4.51,0,0,0-3.12-1.18,3.69,3.69,0,0,0,0,7.38,4.51,4.51,0,0,0,3.12-1.19v1.25a5.49,5.49,0,0,1-3.12.94A4.57,4.57,0,0,1,147.52,268.58Z"/><path d="M160.11,264.08h.78l3.87,9h-1.23l-1.08-2.52h-4l-1.08,2.52h-1.17Zm1.93,5.5-1.57-3.7-1.58,3.7Z"/><path d="M165.46,272.18l.27-1.11a3.69,3.69,0,0,0,2.73,1.23,1.67,1.67,0,0,0,1.89-1.58c0-.91-.45-1.42-2.13-1.87s-2.5-1.37-2.5-2.63,1.05-2.34,2.89-2.34a4,4,0,0,1,2.45.83l-.27.94a4,4,0,0,0-2.18-.79c-1.12,0-1.77.52-1.77,1.36,0,.65.41,1.19,1.82,1.56,1.93.51,2.82,1.35,2.82,2.84a2.74,2.74,0,0,1-3,2.65A4.22,4.22,0,0,1,165.46,272.18Z"/><path d="M175.14,265.08h-3.2v-1h7.59v1h-3.19v8h-1.2Z"/><path d="M180.75,264.08H182v8h4.24v1h-5.44Z"/><path d="M187.41,264.08h5.44v1h-4.24v2.75h3.49v1h-3.49v3.24h4.24v1h-5.44Z"/><path class="cls-1" d="M107.4,190.75c36.35-12.54,68.07-18.08,68.07-52.55h0V37.2h-136v101h0C39.47,172.67,69.86,177.61,107.4,190.75Z"/><circle class="cls-2" cx="107.97" cy="83.7" r="40"/><path d="M40.19,145.51c0,22.36,30.79,34.36,67.83,45.36,36.3-12.49,68-21,68-45.36"/><polygon class="cls-3" points="54.2 146.2 108.24 64.45 161.48 146.2 54.2 146.2"/><polygon class="cls-4" points="107.47 146.2 107.47 120.2 80.97 146.2 107.47 146.2"/><path class="cls-3" d="M80.47,120.2V146a.1.1,0,0,0,.17.07l26.15-25.66a.1.1,0,0,0-.07-.18Z"/><line class="cls-1" x1="107.47" y1="120.7" x2="107.47" y2="64.7"/><line class="cls-5" x1="108.37" y1="64.7" x2="113.84" y2="56.37"/><line class="cls-5" x1="107.84" y1="64.7" x2="102.84" y2="56.37"/><line class="cls-1" x1="39.97" y1="146.2" x2="54.97" y2="146.2"/><line class="cls-1" x1="160.97" y1="146.2" x2="175.97" y2="146.2"/><line class="cls-6" x1="123.47" y1="2.2" x2="123.47" y2="14.2"/><line class="cls-6" x1="129.47" y1="8.2" x2="117.47" y2="8.2"/><line class="cls-6" x1="138.47" y1="17.2" x2="138.47" y2="29.2"/><line class="cls-6" x1="144.47" y1="23.2" x2="132.47" y2="23.2"/><line class="cls-6" x1="107.47" y1="17.2" x2="107.47" y2="29.2"/><line class="cls-6" x1="113.47" y1="23.2" x2="101.47" y2="23.2"/><line class="cls-6" x1="76.47" y1="17.2" x2="76.47" y2="29.2"/><line class="cls-6" x1="82.47" y1="23.2" x2="70.47" y2="23.2"/><line class="cls-6" x1="92.47" y1="2.2" x2="92.47" y2="14.2"/><line class="cls-6" x1="98.47" y1="8.2" x2="86.47" y2="8.2"/></svg>