<svg id="Layer_1" data-name="Layer 1" xmlns="http://www.w3.org/2000/svg" viewBox="0 0 375 140"><defs><style>.cls-1,.cls-2{fill:#fff;}.cls-2,.cls-3,.cls-4,.cls-5{stroke:#000;stroke-miterlimit:10;stroke-width:3px;}.cls-4,.cls-5{fill:none;}.cls-5{stroke-linecap:round;}</style></defs><title>Artboard 1 copy 9</title><circle class="cls-1" cx="187.5" cy="40.4" r="40"/><polygon class="cls-2" points="133.72 102.9 187.76 21.14 241.01 102.9 133.72 102.9"/><polygon class="cls-3" points="187 102.9 187 76.9 160.5 102.9 187 102.9"/><path class="cls-2" d="M160,76.9v25.76a.1.1,0,0,0,.17.07l26.16-25.66a.1.1,0,0,0-.07-.17Z"/><line class="cls-4" x1="187" y1="77.4" x2="187" y2="23.4"/><line class="cls-5" x1="187.89" y1="20.85" x2="193.36" y2="12.52"/><line class="cls-5" x1="187.36" y1="20.85" x2="182.36" y2="12.52"/><line class="cls-4" x1="-0.5" y1="102.9" x2="133.5" y2="102.9"/><line class="cls-4" x1="239.5" y1="102.9" x2="375.5" y2="102.9"/><rect x="131.5" y="102.4" width="110" height="37"/><path class="cls-1" d="M155.44,115.39H157l4.64,10,4.64-10h1.48v12h-1.54v-8.18c0-.31,0-1,0-1s-.3.72-.42,1l-3.74,8.18H161l-3.74-8.18c-.14-.29-.4-1-.42-1s0,.7,0,1v8.18h-1.46Z"/><path class="cls-1" d="M173.9,122.6l-4.7-7.21h1.74l3.8,5.91,3.8-5.91h1.66l-4.7,7.21v4.8h-1.6Z"/><path class="cls-1" d="M188.24,116.73H184v-1.34H194.1v1.34h-4.26V127.4h-1.6Z"/><path class="cls-1" d="M195.72,115.39h4c2.74,0,3.92,1.58,3.92,3.52a3.22,3.22,0,0,1-2.48,3.35l3.64,5.14H202.9l-3.44-5h-2.14v5h-1.6Zm4,5.71a2.19,2.19,0,1,0,0-4.37h-2.36v4.37Z"/><path class="cls-1" d="M206.16,115.39h1.6v12h-1.6Z"/><path class="cls-1" d="M210.48,115.39h4c2.74,0,3.92,1.68,3.92,3.62s-1.18,3.63-3.92,3.63h-2.36v4.76h-1.6Zm4,5.91a2.29,2.29,0,1,0,0-4.57h-2.36v4.57Z"/></svg>