<svg id="Layer_1" data-name="Layer 1" xmlns="http://www.w3.org/2000/svg" viewBox="0 0 71 62"><defs><style>.cls-1{fill:#fff;stroke:#000;stroke-linecap:round;stroke-miterlimit:10;stroke-width:3px;}</style></defs><title>Artboard 24 copy</title><path class="cls-1" d="M59.84,40.25a8.77,8.77,0,0,0,8.77-7.31,8.6,8.6,0,0,0-8.5-9.86,8.14,8.14,0,0,0-1.22.1,22.3,22.3,0,0,0-43.7-4.49,10.41,10.41,0,0,0-8.62,2.23A10.5,10.5,0,0,0,2.81,26a11.32,11.32,0,0,0,7.66,14.21Z"/><path d="M24.74,49.73c-.7-1.23-3.48-4.6-3.48-4.6s-2.72,3.41-3.47,4.6a3.68,3.68,0,0,0-.48,1.85,4,4,0,1,0,7.91,0A4.59,4.59,0,0,0,24.74,49.73Z"/><path d="M39,54.93c-.7-1.23-3.47-4.6-3.47-4.6s-2.73,3.41-3.47,4.6a3.72,3.72,0,0,0-.49,1.86,4,4,0,0,0,7.92,0A4.63,4.63,0,0,0,39,54.93Z"/><path d="M53.21,49.73c-.7-1.23-3.47-4.6-3.47-4.6s-2.73,3.41-3.48,4.6a3.78,3.78,0,0,0-.48,1.85,4,4,0,1,0,7.91,0A4.59,4.59,0,0,0,53.21,49.73Z"/></svg>