<svg id="Layer_1" data-name="Layer 1" xmlns="http://www.w3.org/2000/svg" viewBox="0 0 149 19"><title>Artboard 1 copy 2</title><defs><style>.b{fill:#fff;}</style></defs><path class="b" d="M.5,9.45C.5,4.05,4.68.73,9.5.73A10.1,10.1,0,0,1,15.38,2.4V6.25A7.94,7.94,0,0,0,10.25,4.3C7.44,4.3,5.3,6.11,5.3,9.45s2.14,5.16,5,5.16a7.94,7.94,0,0,0,5.13-1.95V16.5A10,10,0,0,1,9.5,18.18C4.68,18.18.5,14.86.5,9.45Z"/><path class="b" d="M25.14,1.1H29l7,16.71H31.49l-1.42-3.56H23.88l-1.39,3.56H18.11ZM29,11.32,27,6.06l-2,5.26Z"/><path class="b" d="M39.4,1.1h5.05L49,11.71,53.53,1.1h4.93V17.81h-4V8.7c0-.39.08-1.67.11-1.78L54,8.7l-3.76,9.11H47.54L43.78,8.7c-.17-.39-.56-1.59-.62-1.78,0,.11.12,1.39.12,1.78v9.11H39.4Z"/><path class="b" d="M63.51,1.1h7.13c4.21,0,6.13,2.53,6.13,5.6s-1.92,5.6-6.13,5.6H68v5.51H63.51Zm6,8.21c1.92,0,2.73-1,2.73-2.61s-.81-2.62-2.73-2.62H68V9.31Z"/><path class="b" d="M84.27,1.1h3.81l7,16.71H90.62L89.2,14.25H83l-1.39,3.56H77.24Zm3.84,10.22-2-5.26-2,5.26Z"/><path class="b" d="M98.53,1.1h4.52V14.41h7.1v3.4H98.53Z"/><path class="b" d="M112.6,9.45c0-5.12,4.16-8.83,9.28-8.83s9.23,3.71,9.23,8.83-4.13,8.84-9.23,8.84S112.6,14.58,112.6,9.45Zm13.71,0c0-3.2-1.64-5.29-4.43-5.29s-4.48,2.09-4.48,5.29,1.67,5.3,4.48,5.3S126.31,12.66,126.31,9.45Z"/><path class="b" d="M138.44,4.49h-5.38V1.1h15.27V4.49H143V17.81h-4.51Z"/></svg>
